. 
  
http://www.torrenting.com/        :     Greatest Movie Tracker on The Net!!!
 
http://www.Torrenting.com          :     Once & For all ;)


               www . Torrenting . Com 

(((((((((((((= Enjoy No RAR releases =))))))))))))))))))))


...................................NFO:....................................

.                                                                                                     
       
     
     
       
       
     
     
                                         
                                         
                EXVID                    
                                         
         
                                         
         Filled the Archives             
                                         
         
                                         
                With:                    
                                         
         
                                         
                                    
     E240                           
                                    
     SP               (C) 2009      
                                         
     
     
     
                                                                                  
                                                                                   
                     Darfur.2009.WS.BDRip.XviD-EXViD                                
                                                                                   
                                                                                  
     
                                                                                               
EXViD aims to iNTERNAL those releases which have been lost in the archives.
EXViD aims to PRE non-internal releases which have poor sources and are likely skipped by others. 
http://www.imdb.com/title/tt1236471/
Subtitles: English (foreign parts only)
Date: 2011.09

Director: Uwe Boll

Genre: Drama | Thriller

Plot:
American journalists in Sudan are confronted with the dilemma of whether to return home to
report on the atrocities they have seen, or to stay behind and help some of the victims they
have encountered.

Cast:
Kristanna Loken 	 ... 	 Malin Lausberg
David O'Hara 	 ... 	 Freddie Smith
Noah Danby 	 ... 	 Theo Schwartz
Matt Frewer 	 ... 	 Ted Duncan
Hakeem Kae-Kazim 	 ... 	 Captain Jack Tobamke
Sammy Sheik 	 ... 	 Janjaweed Commander
Maggie Benedict 	 ... 	 Halima
Billy Zane 	 ... 	 Bob Jones
Edward Furlong 	 ... 	 Adrian Archer
Fatima Masapu 	 ... 	 Munira
Tshegofatso Mashao 	 ... 	 Sumah
Thando Sibeko 	 ... 	 Poni
Yolanda Msimanga 	 ... 	 Mende
Tauriq Jenkins 	 ... 	 Musa
Olise Ikechukwu 	 ... 	 Mohammed - Yusuf's Son (as Ikechukwu Olise)

Stats:
Format                           : AVI
Format/Info                      : Audio Video Interleave
File size                        : 701 MiB
Duration                         : 1h 38mn
Overall bit rate                 : 997 Kbps
Writing application              : Nandub v1.0rc2
Writing library                  : Nandub build 1852/release

Video
ID                               : 0
Format                           : MPEG-4 Visual
Format profile                   : Advanced Simple@L5
Format settings, BVOP            : 2
Format settings, QPel            : No
Format settings, GMC             : No warppoints
Format settings, Matrix          : Default (H.263)
Codec ID                         : XVID
Codec ID/Hint                    : XviD
Duration                         : 1h 38mn
Bit rate                         : 863 Kbps
Width                            : 624 pixels
Height                           : 256 pixels
Display aspect ratio             : 2.40:1
Frame rate                       : 23.976 fps
Color space                      : YUV
Chroma subsampling               : 4:2:0
Bit depth                        : 8 bits
Scan type                        : Progressive
Compression mode                 : Lossy
Bits/(Pixel*Frame)               : 0.225
Stream size                      : 607 MiB (87%)
Writing library                  : XviD 64

Audio
ID                               : 1
Format                           : MPEG Audio
Format version                   : Version 1
Format profile                   : Layer 3
Mode                             : Joint stereo
Mode extension                   : MS Stereo
Codec ID                         : 55
Codec ID/Hint                    : MP3
Duration                         : 1h 38mn
Bit rate mode                    : Variable
Bit rate                         : 121 Kbps
Nominal bit rate                 : 128 Kbps
Channel(s)                       : 2 channels
Sampling rate                    : 48.0 KHz
Compression mode                 : Lossy
Stream size                      : 84.8 MiB (12%)
Alignment                        : Aligned on interleaves
Interleave, duration             : 24 ms (0.58 video frame)
Interleave, preload duration     : 516 ms
Writing library                  : LAME3.98r
Encoding settings                : -m j -V 4 -q 3 -lowpass 17 --abr 128




Release notes:
The FiCO rip used a Russian DVD source with 1.78:1 AR. Ours is 2.40:1.

enjoy!

Looking for:
75TB+ Archives
DUTCH/FLEMiSH Archives
                                                                                                    
Greets: CRBS EPiSODE FiCO FLS iLS KLASSiGER LiPSYNC MADE NODLABS RUNNER SPRiNTER      
   

                                                                    ASCII DONE BY XX^NFO 2oo9